<svg width="40" height="40" viewBox="0 0 40 40" fill="none" xmlns="http://www.w3.org/2000/svg">
<path d="M39.784 15.3512C35.2833 11.6548 29.2414 11.5058 23.8005 12.9897C23.8195 8.88341 23.9055 4.77831 23.9973 0.67949C24.0162 -0.152031 22.8649 -0.228506 22.6028 0.495722C20.8295 5.42626 19.1851 10.3986 17.6696 15.4129C16.0927 16.2176 14.5789 17.125 13.0915 18.0924C7.47001 15.4243 1.88233 21.903 0.0478792 27.0667C-0.228608 27.8606 0.753437 28.5083 1.42802 28.1214C5.16289 25.9795 9.07329 23.0455 13.1432 20.4003C14.0133 21.0018 14.8227 21.8225 15.5937 22.6883C14.7455 25.8131 13.9615 28.9543 13.2418 32.1118C13.1271 32.63 13.9044 32.848 14.0449 32.3304C14.8158 29.4479 15.6183 26.5727 16.4524 23.7047C20.1058 28.1825 22.3831 33.6299 23.2539 39.3227C23.4116 40.3733 25.2765 40.1354 25.1382 39.0664C24.1057 31.0765 23.8086 23.0261 23.7965 14.9717C28.6815 13.408 33.75 13.3669 38.9752 16.3916C39.6062 16.7598 40.3852 15.8438 39.784 15.349V15.3512ZM3.08579 24.9271C4.19174 23.0261 5.71013 21.3545 7.59047 20.2045C8.84671 19.4375 9.99052 19.2543 11.0425 19.4563C8.38437 21.274 5.78699 23.1945 3.08579 24.9271ZM22.429 5.11903C22.3372 7.90579 22.2569 10.6897 22.2058 13.4725C21.6661 13.6528 21.1383 13.8526 20.6175 14.0592C20.1442 14.2509 19.6756 14.4512 19.2167 14.6613C20.2423 11.4676 21.3131 8.28683 22.429 5.11903ZM16.2057 20.4579C15.7858 20.0476 15.3551 19.6589 14.9071 19.284C15.5587 18.8845 16.2138 18.4941 16.8688 18.1186C16.6451 18.8976 16.422 19.6744 16.2057 20.4579ZM17.1304 21.4053C17.5434 20.0282 17.9599 18.6608 18.3872 17.2916C19.6158 16.6409 20.8797 16.0584 22.1732 15.547C22.1192 20.2171 22.1651 24.8861 22.4118 29.5476C21.0793 26.5617 19.3102 23.7595 17.1287 21.4053H17.1304ZM34.1349 18.15C33.9193 19.2692 32.4858 20.0624 31.5301 19.2383C31.0024 18.7818 31.0907 18.1808 31.4154 17.7819C31.0454 18.0347 30.7724 18.4981 30.575 18.84C30.298 19.3268 29.4467 18.9935 29.6504 18.4525C30.0634 17.3641 30.7833 16.2444 32.0665 16.1565C33.1684 16.0795 34.3604 16.9555 34.1349 18.15Z" fill="#1E266D"/>
</svg>
