<svg width="111" height="134" viewBox="0 0 111 134" fill="none" xmlns="http://www.w3.org/2000/svg">
<path d="M106.886 37.0527L84.2901 133.738L-1.47744e-05 114.04L26.6514 0L96.0668 16.2226L106.886 37.0527Z" fill="#DAD7E5"/>
<path d="M106.886 37.0527L85.4489 128.78L16.0335 112.558C14.061 112.097 12.3524 110.871 11.2836 109.15C10.2147 107.43 9.87327 105.355 10.3343 103.382L34.0888 1.73816L96.0668 16.2226L106.886 37.0527Z" fill="#EDEBF2"/>
<path d="M106.886 37.0527L92.0111 33.5764L96.0668 16.2225L106.886 37.0527Z" fill="#C6C3D8"/>
<path d="M51.5097 50.2564L46.8746 70.0893L36.9581 67.7718L39.855 55.3762L51.5097 50.2564Z" fill="#6FABE6"/>
<path d="M60.2674 57.5321L56.7911 72.4068L46.8746 70.0893L51.5096 50.2563L60.2674 57.5321Z" fill="#6FABE6"/>
<path d="M72.5014 49.9331L66.7076 74.7243L56.7911 72.4068L60.2674 57.5321L72.5014 49.9331Z" fill="#6FABE6"/>
<path d="M49.7715 57.6937L46.8746 70.0893L36.9581 67.7718L38.1169 62.8136L49.7715 57.6937Z" fill="#82BCF4"/>
<path d="M58.5292 64.9695L56.7911 72.4068L46.8746 70.0893L49.7715 57.6937L58.5292 64.9695Z" fill="#82BCF4"/>
<path d="M70.7632 57.3705L66.7076 74.7243L56.7911 72.4068L58.5292 64.9695L70.7632 57.3705Z" fill="#82BCF4"/>
<path d="M60.5235 34.0613L40.6906 29.4263C40.0331 29.2726 39.4635 28.8641 39.1073 28.2905C38.751 27.7169 38.6372 27.0253 38.7908 26.3678C38.9445 25.7103 39.3531 25.1408 39.9266 24.7845C40.5002 24.4282 41.1918 24.3144 41.8493 24.4681L61.6823 29.1031C62.3398 29.2567 62.9093 29.6653 63.2656 30.2389C63.6219 30.8125 63.7357 31.5041 63.582 32.1616C63.4284 32.8191 63.0198 33.3886 62.4462 33.7449C61.8727 34.1012 61.181 34.215 60.5235 34.0613Z" fill="#C6C3D8"/>
<path d="M48.2896 41.6602L38.3731 39.3427C37.7156 39.189 37.146 38.7805 36.7898 38.2069C36.4335 37.6333 36.3197 36.9417 36.4733 36.2842C36.627 35.6267 37.0355 35.0571 37.6091 34.7009C38.1827 34.3446 38.8743 34.2308 39.5318 34.3844L49.4483 36.7019C50.1058 36.8556 50.6754 37.2642 51.0316 37.8377C51.3879 38.4113 51.5017 39.1029 51.3481 39.7604C51.1944 40.418 50.7858 40.9875 50.2123 41.3438C49.6387 41.7 48.9471 41.8139 48.2896 41.6602Z" fill="#C6C3D8"/>
<path d="M42.2396 89.9222L17.4484 84.1284C16.7909 83.9748 16.2213 83.5662 15.8651 82.9926C15.5088 82.4191 15.395 81.7274 15.5486 81.0699C15.7023 80.4124 16.1109 79.8429 16.6844 79.4866C17.258 79.1304 17.9496 79.0165 18.6071 79.1702L43.3984 84.964C44.0559 85.1176 44.6254 85.5262 44.9817 86.0998C45.3379 86.6734 45.4518 87.365 45.2981 88.0225C45.1444 88.68 44.7359 89.2495 44.1623 89.6058C43.5887 89.9621 42.8971 90.0759 42.2396 89.9222Z" fill="#C6C3D8"/>
<path d="M39.9221 99.8389L15.1309 94.0451C14.4734 93.8914 13.9038 93.4828 13.5476 92.9093C13.1913 92.3357 13.0775 91.6441 13.2311 90.9866C13.3848 90.3291 13.7934 89.7595 14.3669 89.4033C14.9405 89.047 15.6321 88.9332 16.2896 89.0868L41.0809 94.8806C41.7384 95.0343 42.3079 95.4428 42.6642 96.0164C43.0204 96.59 43.1343 97.2816 42.9806 97.9391C42.8269 98.5966 42.4184 99.1661 41.8448 99.5224C41.2712 99.8787 40.5796 99.9925 39.9221 99.8389Z" fill="#C6C3D8"/>
<path d="M37.6046 109.755L12.8134 103.961C12.1559 103.808 11.5863 103.399 11.2301 102.826C10.8738 102.252 10.76 101.56 10.9136 100.903C11.0673 100.245 11.4759 99.6759 12.0494 99.3196C12.623 98.9634 13.3146 98.8495 13.9721 99.0032L38.7634 104.797C39.4209 104.951 39.9904 105.359 40.3467 105.933C40.7029 106.506 40.8168 107.198 40.6631 107.855C40.5094 108.513 40.1009 109.083 39.5273 109.439C38.9537 109.795 38.2621 109.909 37.6046 109.755Z" fill="#C6C3D8"/>
<path d="M68.7689 88.2788L65.2927 103.153L52.3246 111.208C50.7332 108.643 49.9377 105.663 50.0388 102.645C50.1398 99.6276 51.1329 96.7077 52.8925 94.2542C54.652 91.8006 57.0992 89.9236 59.925 88.8601C62.7507 87.7965 65.8283 87.5942 68.7689 88.2788Z" fill="#FFCC66"/>
<path d="M80.1674 106.63L65.2926 103.154L68.7689 88.2788C72.7139 89.2008 76.1311 91.6521 78.2688 95.0936C80.4064 98.5351 81.0893 102.685 80.1674 106.63Z" fill="#82BCF4"/>
<path d="M80.1674 106.63C79.4777 109.569 77.9324 112.238 75.7267 114.3C73.521 116.362 70.7537 117.724 67.7745 118.213C64.7952 118.703 61.7376 118.299 58.9878 117.053C56.238 115.806 53.9193 113.772 52.3247 111.208L65.2927 103.153L80.1674 106.63Z" fill="#DB5669"/>
<path d="M80.1674 106.63C79.537 109.363 78.1553 111.865 76.1781 113.855C72.927 114.922 69.4116 114.867 66.1955 113.698C62.9794 112.529 60.2488 110.315 58.4416 107.409L65.2927 103.153L80.1674 106.63Z" fill="#F26674"/>
<path d="M68.7689 88.2787L65.2927 103.153L58.4416 107.409C56.6378 104.501 55.8625 101.072 56.2402 97.6707C56.6178 94.2697 58.1264 91.094 60.5242 88.6527C63.1839 87.762 66.0395 87.6325 68.7689 88.2787Z" fill="#FFDE76"/>
<path d="M31.4205 69.0923L71.0864 78.3623C71.7439 78.516 72.4356 78.4022 73.0091 78.0459C73.5827 77.6896 73.9913 77.1201 74.1449 76.4626C74.2986 75.8051 74.1848 75.1135 73.8285 74.5399C73.4722 73.9663 72.9027 73.5577 72.2452 73.4041L69.7661 72.8247L74.7429 51.529L80.8599 47.7296L79.9387 51.6714C79.7851 52.3289 79.8989 53.0205 80.2552 53.5941C80.6114 54.1676 81.181 54.5762 81.8385 54.7299C82.496 54.8835 83.1876 54.7697 83.7612 54.4134C84.3347 54.0572 84.7433 53.4876 84.897 52.8301C88.3385 38.1041 89.9507 40.9386 75.3982 37.5376C74.7407 37.384 74.0491 37.4978 73.4755 37.854C72.902 38.2103 72.4934 38.7799 72.3397 39.4374C72.1861 40.0949 72.2999 40.7865 72.6562 41.3601C73.0124 41.9336 73.582 42.3422 74.2395 42.4959L78.1813 43.4171L60.4784 54.3918C52.684 47.9164 52.9071 47.9685 52.089 47.7773C51.2709 47.5861 51.3453 47.6035 38.9112 53.038C37.249 53.7737 37.4792 54.6903 35.1385 64.706L32.585 64.1092C31.9242 63.9548 31.2292 64.0692 30.6527 64.4272C30.0763 64.7853 29.6657 65.3577 29.5112 66.0185C29.3568 66.6793 29.4712 67.3743 29.8293 67.9508C30.1873 68.5272 30.7597 68.9378 31.4205 69.0923ZM53.0501 54.852L57.429 58.4899L54.8913 69.3484L49.9331 68.1897L53.0501 54.852ZM64.8078 71.6659L59.8496 70.5072L62.5089 59.128L68.6259 55.3285L64.8078 71.6659ZM42.0444 57.1952L47.8717 54.6353L44.9748 67.0309L40.0166 65.8721L42.0444 57.1952Z" fill="#425B72"/>
</svg>
