<svg width="146" height="136" viewBox="0 0 146 136" fill="none" xmlns="http://www.w3.org/2000/svg">
<path d="M53.0878 100.064C52.6213 91.0843 58.1332 82.6868 66.532 79.4753C69.3909 78.3821 72.2322 77.984 74.9637 78.1196C76.5036 78.1967 77.5403 76.5553 76.8473 75.1779C69.7105 60.9829 53.6572 52.4625 36.8655 56.0054C19.5411 59.6605 7.26693 75.7001 8.2392 93.3792C9.40554 114.588 28.2142 130.027 48.9324 127.447C54.938 126.699 60.4142 124.519 65.0667 121.295C66.3522 120.405 66.1587 118.487 64.7562 117.795C58.2215 114.574 53.501 108.025 53.0878 100.064Z" fill="#F3C600"/>
<path d="M45.328 66.3942C46.2028 63.1504 49.5407 61.2306 52.7842 62.1043C56.0281 62.9791 57.9478 66.317 57.0741 69.5605C56.1993 72.8044 52.8614 74.7241 49.6179 73.8504C46.374 72.9756 44.454 69.6366 45.328 66.3942ZM36.6867 121.811C39.9305 122.686 43.268 120.765 44.1429 117.521C45.0177 114.277 43.0968 110.94 39.853 110.065C36.6092 109.19 33.2716 111.111 32.3968 114.355C31.523 117.598 33.4442 120.937 36.6867 121.811ZM14.8821 83.9089C14.0072 87.1527 15.9281 90.4903 19.1719 91.3651C22.4158 92.24 25.7533 90.3191 26.6282 87.0752C27.503 83.8314 25.5821 80.4939 22.3383 79.619C19.0944 78.7442 15.7569 80.6651 14.8821 83.9089ZM29.3173 65.1568C26.4053 66.8325 25.4033 70.5502 27.0779 73.4625C28.7537 76.3744 32.4713 77.3765 35.3836 75.7018C38.2955 74.0261 39.2976 70.3084 37.6229 67.3962C35.9483 64.4839 32.2292 63.4811 29.3173 65.1568ZM17.9346 107.376C19.6103 110.288 23.3279 111.29 26.2402 109.615C29.1522 107.939 30.1542 104.222 28.4796 101.31C26.8038 98.3976 23.0862 97.3955 20.1739 99.0702C17.2617 100.745 16.2602 104.465 17.9346 107.376Z" fill="#E8522C"/>
<path d="M101.669 79.7533C101.296 79.8626 65.8148 90.0025 48.1555 77.7597C52.1507 77.5201 58.0768 76.8963 60.7842 75.2661C61.4707 74.8545 62.0575 74.4172 62.5704 74.0169L62.7199 73.9043C68.9129 69.2725 67.3904 61.5184 66.7778 59.2579L60.3099 54.9508C57.863 55.2386 49.8838 56.7981 48.2359 65.1647C46.6249 73.369 43.5783 75.6037 43.5654 75.6166C43.104 75.9156 42.8918 76.4912 43.0542 77.0282C43.2165 77.5523 43.7037 77.9028 44.2535 77.9028H44.2664C44.2696 77.9028 44.2776 77.9028 44.2825 77.9028C50.5671 83.5089 60.0881 86.3417 72.6734 86.3417C74.9933 86.3417 77.4194 86.2453 79.9451 86.054C92.098 85.1279 102.272 82.1842 102.371 82.1536L101.669 79.7533Z" fill="#DA7141"/>
<path d="M101.643 9.79769L97.0224 16.428L96.1607 17.6643L95.4244 18.7126L94.5626 19.9489L86.0336 32.1853L85.1719 33.4088L84.4725 34.4201L83.6108 35.6436L81.2522 39.2143L78.7152 38.3172C76.2055 37.9796 73.5962 39.142 72.2473 41.4636C71.3614 42.962 71.1235 44.7224 71.5737 46.4089C71.7103 46.9331 71.9113 47.4202 72.1734 47.8816C72.5737 48.6308 73.1219 49.2803 73.7714 49.7803L72.8727 51.0537L72.847 51.0906L71.2232 53.4251L68.027 58.0071L61.5591 53.7L64.781 48.2691L65.5302 47.0199L66.2537 45.7835V45.7707L81.5496 20.0357H81.5625L82.2988 18.7865L83.1847 17.2881L83.9339 16.0389L91.6253 3.09024C91.6751 3.00342 91.7378 2.87802 91.8134 2.76548C91.8263 2.73976 91.8391 2.7285 91.8632 2.70278C92.7491 1.35389 94.1108 0.442308 95.6961 0.117547C97.27 -0.194353 98.8922 0.117547 100.228 1.01627C101.577 1.90213 102.489 3.27674 102.813 4.8491C103.166 6.60152 102.741 8.39897 101.643 9.79769Z" fill="#8C4C2B"/>
<path d="M83.1879 17.2897L82.3021 18.7881L81.5657 20.0373H81.5529L66.2569 45.7722V45.7851L65.5334 47.0214L64.7842 48.2706C63.9981 47.2964 63.5849 46.0359 63.7103 44.7626C64.1974 39.5439 65.2087 32.7014 67.2939 29.7046C69.1042 27.1081 75.3101 18.5919 79.4805 17.78C79.6927 17.7431 80.1927 17.6804 80.8037 17.6048C81.5513 17.5148 82.4886 17.4151 83.1879 17.2897ZM126.129 44.3108C125.492 43.5873 122.894 39.441 120.597 35.7818C114.142 25.4682 111.232 21.0228 109.958 20.2109C109.222 19.7366 104.627 18.8878 96.2733 17.6755C96.2363 17.6755 96.1977 17.6627 96.1607 17.6627L95.4244 18.7109L94.5626 19.9473C94.5996 19.9473 85.1735 33.4072 85.1735 33.4072L84.4741 34.4184L83.6124 35.6419L83.7249 35.6676L94.5884 37.7657C96.0241 37.9651 97.098 39.1275 97.1848 40.5632L96.5112 45.3574L92.3279 45.0327C91.5417 44.97 90.7796 44.7336 90.106 44.3333L81.2522 39.2143L81.0898 39.1275C80.3776 38.7159 79.6043 38.4538 78.8294 38.3284C78.7924 38.3284 78.7538 38.3156 78.7168 38.3156C76.2072 37.9779 73.5978 39.1403 72.2489 41.4619C71.3631 42.9603 71.1251 44.7208 71.5753 46.4073C71.712 46.9314 71.9129 47.4185 72.175 47.88C72.5753 48.6292 73.1235 49.2787 73.7731 49.7787C73.7988 49.8044 73.8229 49.8157 73.8486 49.8414C74.0608 50.0295 74.2988 50.179 74.5351 50.3157L76.8085 51.8511C77.0207 52.6131 76.6718 53.4363 75.9467 53.7739C75.1348 54.1614 74.1605 53.7996 73.7747 52.9877L72.8759 51.052L72.8502 51.089L71.2264 53.4234L71.5142 54.0472C72.2264 55.5456 73.712 56.4202 75.2602 56.4202C75.847 56.4202 76.4467 56.2948 77.0078 56.0328C78.1059 55.5215 78.868 54.5601 79.1927 53.4604L93.352 63.0119C94.4002 63.7241 95.6125 64.2113 96.8987 64.4235L112.732 66.4846L114.093 67.5329L115.592 65.5345L128.515 48.253L130.05 46.2047C128.751 45.6098 126.852 44.7224 126.129 44.3108Z" fill="#F4C9A5"/>
<path d="M145.184 56.0361L127.926 78.4238C127.264 79.2855 126.241 79.7469 125.217 79.7469C124.568 79.7469 123.931 79.5717 123.357 79.1971L114.317 73.3289C113.531 72.8176 112.981 71.9928 112.818 71.0555C112.656 70.1311 112.881 69.1697 113.442 68.4076L114.092 67.533L115.59 65.5346L128.513 48.2531L130.048 46.2048L130.722 45.3061C131.833 43.8206 133.968 43.4958 135.466 44.5939L144.494 51.1872C145.243 51.737 145.73 52.5489 145.856 53.4605C145.994 54.3882 145.745 55.2998 145.184 56.0361Z" fill="#231F20"/>
</svg>
