<svg width="167" height="128" viewBox="0 0 167 128" fill="none" xmlns="http://www.w3.org/2000/svg">
<path d="M102.399 13.2251C79.3272 18.5164 64.911 41.5122 70.2024 64.5847C75.4937 87.6571 98.4898 102.073 121.562 96.7817C144.635 91.4903 159.05 68.4945 153.759 45.4221C148.468 22.3497 125.472 7.93369 102.399 13.2251ZM112.758 58.391C110.888 58.8198 109.022 57.6502 108.593 55.7802C108.165 53.9102 109.334 52.045 111.204 51.6161C113.074 51.1872 114.939 52.3565 115.368 54.2268C115.797 56.0971 114.628 57.962 112.758 58.391Z" fill="#AAB2BD"/>
<path d="M102.917 15.4834C81.0933 20.4884 67.4556 42.2425 72.4607 64.0668C77.4657 85.8908 99.22 99.5284 121.044 94.5234C142.868 89.5183 156.506 67.764 151.501 45.94C146.496 24.1157 124.742 10.4783 102.917 15.4834ZM112.758 58.3909C110.888 58.8198 109.022 57.6502 108.593 55.7802C108.165 53.9102 109.334 52.045 111.204 51.6161C113.074 51.1872 114.939 52.3565 115.368 54.2268C115.797 56.097 114.628 57.962 112.758 58.3909Z" fill="#CCD1D9"/>
<g opacity="0.5">
<path opacity="0.5" d="M153.759 45.4222L124.567 52.117L115.369 54.2288C115.481 54.7162 115.48 55.1994 115.391 55.6607L124.587 57.6512L153.852 63.9877C155.133 58.0419 155.209 51.7429 153.759 45.4222Z" fill="white"/>
</g>
<path d="M109.132 42.5831C102.274 44.156 97.9873 50.9932 99.5603 57.8519C101.133 64.7106 107.971 68.9967 114.829 67.4238C121.688 65.8509 125.974 59.0137 124.401 52.1549C122.828 45.2962 115.991 41.0101 109.132 42.5831ZM112.758 58.391C110.888 58.8199 109.022 57.6503 108.593 55.7803C108.165 53.9103 109.334 52.045 111.204 51.6162C113.074 51.1873 114.939 52.3566 115.368 54.2269C115.797 56.0971 114.628 57.9621 112.758 58.391Z" fill="#ED5565"/>
<g opacity="0.3">
<g opacity="0.3">
<path opacity="0.3" d="M109.132 42.583C108.751 42.6705 108.381 42.7785 108.016 42.8992C114.477 42.0189 120.658 46.1981 122.143 52.6731C123.628 59.148 119.886 65.6031 113.687 67.6257C114.068 67.5755 114.448 67.5116 114.829 67.4241C121.688 65.8511 125.974 59.0139 124.401 52.1552C122.828 45.2965 115.991 41.01 109.132 42.583Z" fill="black"/>
</g>
</g>
<g opacity="0.2">
<path opacity="0.2" d="M113.479 97.8254C114.255 97.7958 115.037 97.7232 115.819 97.6509L96.8514 14.9454C96.1159 15.2208 95.3806 15.4962 94.6698 15.8078L113.479 97.8254Z" fill="black"/>
</g>
<path d="M89.4613 13.8177L10.4148 31.9459L30.6133 120.019L109.66 101.891L89.4613 13.8177Z" fill="#FFCE54"/>
<path d="M115.212 105.371L36.1656 123.5L30.6132 120.019L109.66 101.891L115.212 105.371Z" fill="#FFCE54"/>
<path d="M115.212 105.371L109.66 101.891L89.4616 13.8176L95.014 17.2984L115.212 105.371Z" fill="#FFCE54"/>
<g opacity="0.2">
<path opacity="0.2" d="M115.212 105.371L36.1656 123.5L30.6132 120.019L109.66 101.891L115.212 105.371Z" fill="black"/>
</g>
<g opacity="0.2">
<path opacity="0.2" d="M115.212 105.371L109.66 101.891L89.4616 13.8176L95.014 17.2984L115.212 105.371Z" fill="black"/>
</g>
<path d="M10.4148 31.9459L1.3882 34.016L21.5866 122.089L30.6133 120.019L10.4148 31.9459Z" fill="#656D78"/>
<path d="M36.1656 123.5L27.1389 125.57L21.5866 122.089L30.6132 120.019L36.1656 123.5Z" fill="#656D78"/>
<g opacity="0.2">
<path opacity="0.2" d="M36.1656 123.5L27.1389 125.57L21.5866 122.089L30.6132 120.019L36.1656 123.5Z" fill="black"/>
</g>
<path d="M84.2315 22.1482L18.7456 37.1665L19.7814 41.6831L85.2673 26.6648L84.2315 22.1482Z" fill="#656D78"/>
<path d="M81.4943 61.9974C84.2118 73.8468 76.81 85.6538 64.9606 88.3713C53.1112 91.0888 41.3042 83.6871 38.5867 71.8377C35.8692 59.9883 43.271 48.1813 55.1204 45.4638C66.9698 42.7463 78.7768 50.148 81.4943 61.9974Z" fill="#ED5565"/>
<g opacity="0.3">
<path opacity="0.3" d="M40.8453 71.3198C38.2153 59.8519 45.0784 48.4493 56.2631 45.2621C55.8813 45.3289 55.5024 45.3762 55.1207 45.4638C43.2713 48.1813 35.8695 59.9883 38.587 71.8377C41.3045 83.6871 53.1115 91.0888 64.9609 88.3713C65.3427 88.2838 65.7043 88.1613 66.0771 88.055C54.621 90.0602 43.4752 82.7874 40.8453 71.3198Z" fill="white"/>
</g>
<g opacity="0.2">
<path opacity="0.2" d="M79.236 62.5153C81.8659 73.9829 75.0028 85.3858 63.8185 88.5729C64.2 88.5062 64.5791 88.4588 64.9606 88.3713C76.81 85.6538 84.2118 73.8468 81.4943 61.9974C78.7768 50.148 66.9698 42.7462 55.1204 45.4637C54.7389 45.5512 54.377 45.6738 54.0045 45.78C65.4603 43.7749 76.606 51.0474 79.236 62.5153Z" fill="black"/>
</g>
<path d="M72.4612 64.0691C74.0336 70.9256 69.7454 77.7656 62.889 79.338C56.0325 80.9105 49.1925 76.6225 47.6201 69.7661C46.0477 62.9096 50.3359 56.0696 57.1921 54.4973C64.0488 52.9248 70.8887 57.2127 72.4612 64.0691Z" fill="#FFCE54"/>
<g opacity="0.5">
<path opacity="0.5" d="M49.8784 69.2481C48.3935 62.7732 52.1382 56.3176 58.3344 54.2952C57.9541 54.3477 57.5738 54.4093 57.192 54.4969C50.3355 56.0693 46.0476 62.9093 47.6201 69.7657C49.1925 76.6222 56.0327 80.91 62.8889 79.3377C63.2707 79.2501 63.6398 79.1399 64.005 79.0214C57.5469 79.9017 51.3633 75.723 49.8784 69.2481Z" fill="white"/>
</g>
<g opacity="0.2">
<path opacity="0.2" d="M70.1964 64.5884C71.6813 71.0634 67.9363 77.519 61.7403 79.541C62.1204 79.4886 62.5009 79.4269 62.8825 79.3394C69.7389 77.767 74.0271 70.927 72.4547 64.0705C70.8822 57.2141 64.042 52.9262 57.1856 54.4986C56.8041 54.5861 56.4345 54.6962 56.0697 54.8149C62.5276 53.9349 68.7115 58.1135 70.1964 64.5884Z" fill="black"/>
</g>
<g opacity="0.2">
<path opacity="0.2" d="M3.64422 33.4986L1.3882 34.016L21.5866 122.089L23.8427 121.572L3.64422 33.4986Z" fill="white"/>
</g>
<g opacity="0.2">
<path opacity="0.2" d="M10.4171 31.9454L8.16106 32.4628L28.3595 120.536L30.6155 120.019L10.4171 31.9454Z" fill="black"/>
</g>
<g opacity="0.2">
<path opacity="0.2" d="M12.6731 31.428L10.4171 31.9454L30.6155 120.019L32.8715 119.501L12.6731 31.428Z" fill="black"/>
</g>
<g opacity="0.2">
<path opacity="0.2" d="M89.4613 13.8177L87.2053 14.3351L107.404 102.408L109.66 101.891L89.4613 13.8177Z" fill="black"/>
</g>
<g opacity="0.2">
<path opacity="0.2" d="M21.0084 36.6476L18.7456 37.1665L19.7814 41.6831L22.0442 41.1641L21.0084 36.6476Z" fill="white"/>
</g>
<g opacity="0.2">
<path opacity="0.2" d="M84.2314 22.1482L81.9686 22.6671L83.0045 27.1837L85.2673 26.6647L84.2314 22.1482Z" fill="black"/>
</g>
<path d="M54.6025 79.4418C54.3489 79.5 54.076 79.4743 53.8243 79.3486C50.0945 77.4786 47.4209 74.0804 46.4908 70.025C44.8718 62.9655 48.8363 55.9489 55.7153 53.7051C56.1175 53.5757 56.5208 53.4625 56.9331 53.3679C57.5572 53.2248 58.1782 53.6141 58.3213 54.2382C58.4645 54.8623 58.0751 55.4831 57.451 55.6262C57.1048 55.7056 56.7664 55.7995 56.432 55.9086C50.7043 57.7769 47.4 63.6232 48.7494 69.507C49.5248 72.8881 51.7528 75.7196 54.8629 77.2764C55.4346 77.5632 55.6663 78.26 55.3798 78.8317C55.219 79.1542 54.9266 79.3675 54.6025 79.4418Z" fill="#3A3847"/>
<path d="M63.1479 80.4673C62.5239 80.6104 61.9031 80.221 61.76 79.5969C61.6168 78.9729 62.006 78.3522 62.63 78.209C68.8559 76.7812 72.7597 70.554 71.3319 64.3281C70.556 60.9451 68.3298 58.1108 65.2224 56.5554C64.6504 56.2687 64.4187 55.5719 64.7055 55.0002C64.9915 54.4263 65.6888 54.1966 66.2607 54.4833C69.9877 56.3516 72.6591 59.7503 73.5902 63.8102C75.304 71.2819 70.6197 78.7538 63.1479 80.4673Z" fill="#3A3847"/>
<path d="M64.4639 70.6572C64.175 70.7235 63.8608 70.6793 63.5897 70.5094L55.2611 65.2882C54.7189 64.9483 54.555 64.2339 54.895 63.6916C55.2349 63.1493 55.9493 62.9855 56.4916 63.3254L64.8201 68.5465C65.3624 68.8865 65.5263 69.6012 65.1863 70.1432C65.0163 70.4143 64.7528 70.591 64.4639 70.6572Z" fill="#3A3847"/>
<path d="M56.1353 65.4362C55.8465 65.5024 55.5322 65.4582 55.2612 65.2886C54.7189 64.9486 54.5551 64.2342 54.895 63.6919L67.0776 44.2586C67.4176 43.7164 68.132 43.5525 68.6743 43.8925C69.2165 44.2324 69.3804 44.9469 69.0404 45.4891L56.8578 64.9224C56.6878 65.1932 56.4242 65.3699 56.1353 65.4362Z" fill="#3A3847"/>
<path d="M52.2813 90.0906C51.9924 90.1568 51.6782 90.1129 51.4071 89.943C50.8649 89.603 50.701 88.8883 51.041 88.3463L63.2236 68.9131C63.5635 68.3708 64.2779 68.207 64.8202 68.5469C65.3625 68.8868 65.5264 69.6016 65.1864 70.1435L53.0038 89.5768C52.8338 89.8479 52.5702 90.0243 52.2813 90.0906Z" fill="#3A3847"/>
<path d="M49.2199 87.0667C48.9421 87.1304 48.6433 87.0925 48.3784 86.9396C42.8643 83.7265 38.8848 78.318 37.458 72.0966C34.6024 59.6452 42.4102 47.1901 54.8617 44.3345C57.731 43.6764 60.6537 43.5656 63.543 44.0081C64.1756 44.1044 64.611 44.6965 64.514 45.3269C64.4159 45.9623 63.8175 46.3989 63.1951 46.2979C60.5925 45.9014 57.9644 46.0003 55.3796 46.5931C44.1721 49.1633 37.146 60.3712 39.7163 71.579C41.0192 77.2598 44.5096 82.0029 49.544 84.9363C50.0963 85.2603 50.2844 85.9689 49.9633 86.5208C49.7948 86.81 49.5221 86.9974 49.2199 87.0667Z" fill="#3A3847"/>
<path d="M65.2196 89.5007C62.3483 90.1593 59.4301 90.2688 56.5433 89.8284C55.913 89.7316 55.4776 89.1394 55.5739 88.5071C55.6724 87.8737 56.2613 87.4348 56.8951 87.5377C59.4886 87.9342 62.1169 87.835 64.7014 87.2423C75.9089 84.672 82.9354 73.4643 80.365 62.2565C79.0646 56.5864 75.5818 51.8466 70.5556 48.909C70.0031 48.5853 69.8173 47.8759 70.1412 47.3234C70.4673 46.7727 71.1769 46.5868 71.7266 46.9087C77.3086 50.1737 81.1791 55.4401 82.6236 61.7386C85.4791 74.19 77.6714 86.6451 65.2196 89.5007Z" fill="#3A3847"/>
<path d="M85.5262 27.7938L20.0404 42.8121C19.4163 42.9552 18.7955 42.5658 18.6524 41.9417L17.6166 37.4252C17.4734 36.8011 17.8625 36.1801 18.4866 36.037L83.9724 21.0187C84.5968 20.8755 85.2175 21.2649 85.3607 21.889L86.3965 26.4055C86.5397 27.0299 86.1505 27.6506 85.5262 27.7938ZM20.6517 40.2948L83.8793 25.7944L83.3614 23.5362L20.1338 38.0366L20.6517 40.2948Z" fill="#3A3847"/>
<path d="M32.3654 44.7398L21.074 47.3294C20.4499 47.4725 19.8291 47.0831 19.686 46.459C19.5429 45.8349 19.9319 45.2139 20.556 45.0708L31.8474 42.4813C32.4715 42.3381 33.0925 42.7275 33.2357 43.3516C33.3788 43.9756 32.9894 44.5967 32.3654 44.7398Z" fill="#3A3847"/>
<path d="M86.5621 32.3107L75.2707 34.9002C74.6466 35.0433 74.0255 34.654 73.8824 34.0299C73.7393 33.4058 74.1283 32.7848 74.7527 32.6416L86.0441 30.0521C86.6684 29.9089 87.2892 30.2983 87.4324 30.9224C87.5755 31.5465 87.1864 32.1675 86.5621 32.3107Z" fill="#3A3847"/>
<path d="M109.919 103.02L21.8455 123.218C21.2214 123.361 20.6004 122.972 20.4573 122.348L0.25892 34.275C0.115795 33.6509 0.505197 33.0301 1.12928 32.887L89.2024 12.6886C89.8265 12.5455 90.4475 12.9346 90.5906 13.5586L110.789 101.632C110.932 102.256 110.543 102.877 109.919 103.02ZM22.4569 120.701L108.272 101.02L88.5916 15.2058L2.77647 34.8863L22.4569 120.701Z" fill="#3A3847"/>
<path d="M115.089 68.5553C114.681 68.6488 114.275 68.7211 113.87 68.7788C113.236 68.8683 112.651 68.4293 112.561 67.7956C112.469 67.1619 112.938 66.5949 113.544 66.4861C113.886 66.438 114.229 66.3753 114.571 66.297C120.797 64.8692 124.701 58.6419 123.273 52.4161C121.845 46.1902 115.618 42.2864 109.392 43.7142C109.041 43.7946 108.701 43.889 108.366 43.9982C107.743 44.1758 107.102 43.8609 106.907 43.2535C106.709 42.644 107.043 41.9921 107.652 41.7945C108.052 41.6656 108.457 41.5518 108.874 41.4562C116.346 39.7426 123.818 44.4267 125.531 51.8984C127.245 59.3702 122.56 66.8418 115.089 68.5553Z" fill="#3A3847"/>
<path d="M113.017 59.5222C110.527 60.0932 108.036 58.531 107.465 56.0415C106.894 53.5516 108.456 51.06 110.945 50.4891C113.435 49.9181 115.927 51.48 116.498 53.9698C117.069 56.4594 115.507 58.9512 113.017 59.5222ZM111.463 52.7474C110.217 53.0331 109.437 54.2773 109.723 55.5235C110.009 56.7694 111.253 57.5497 112.499 57.2639C113.745 56.9781 114.525 55.7336 114.24 54.4877C113.954 53.2415 112.709 52.4616 111.463 52.7474Z" fill="#3A3847"/>
<path d="M121.821 97.913C120.701 98.1699 119.582 98.3825 118.463 98.551C117.83 98.6451 117.24 98.2094 117.143 97.577C117.049 96.944 117.493 96.3456 118.118 96.2578C119.179 96.0977 120.241 95.8985 121.303 95.6547C143.717 90.5146 157.771 68.0964 152.63 45.6834C147.49 23.2703 125.072 9.21632 102.659 14.3565C101.547 14.6114 100.457 14.9077 99.3858 15.2465C98.7818 15.4269 98.1267 15.1013 97.9332 14.4908C97.7397 13.8804 98.0782 13.2297 98.6889 13.0385C99.8167 12.6823 100.968 12.3672 102.141 12.0982C125.8 6.67231 149.463 21.5062 154.889 45.1652C160.315 68.8242 145.48 92.4872 121.821 97.913Z" fill="#3A3847"/>
<path d="M115.471 106.501L27.3979 126.699C26.7738 126.842 26.1528 126.453 26.0097 125.829C25.8666 125.205 26.2556 124.584 26.88 124.441L114.953 104.242C115.577 104.099 116.198 104.489 116.341 105.113C116.485 105.737 116.095 106.358 115.471 106.501Z" fill="#3A3847"/>
<path d="M27.3979 126.699C27.1091 126.765 26.7948 126.721 26.5238 126.552L20.9716 123.07C20.4294 122.731 20.2655 122.016 20.6055 121.474C20.9454 120.932 21.6598 120.768 22.2021 121.108L27.7545 124.588C28.2967 124.928 28.4606 125.643 28.1206 126.185C27.9507 126.456 27.6868 126.633 27.3979 126.699Z" fill="#3A3847"/>
<path d="M115.471 106.501C115.183 106.567 114.868 106.523 114.597 106.353L109.045 102.872C108.503 102.533 108.339 101.818 108.679 101.276C109.019 100.734 109.733 100.57 110.275 100.91L115.828 104.39C116.37 104.73 116.534 105.445 116.194 105.987C116.024 106.258 115.76 106.435 115.471 106.501Z" fill="#3A3847"/>
<path d="M94.7482 16.1706C94.5782 16.2096 94.3957 16.2122 94.216 16.1675L89.1881 14.9436C88.5655 14.7915 88.1857 14.1658 88.3354 13.5444C88.4904 12.9239 89.122 12.5401 89.7346 12.6917L94.7625 13.9157C95.3851 14.0678 95.7648 14.6932 95.6152 15.3149C95.5072 15.7552 95.1605 16.0761 94.7482 16.1706Z" fill="#3A3847"/>
<path d="M115.471 106.501C114.847 106.644 114.226 106.255 114.083 105.631L93.5355 16.045C93.3924 15.4209 93.7818 14.8002 94.4058 14.657C95.0299 14.5139 95.6509 14.903 95.7941 15.527L116.342 105.113C116.485 105.736 116.095 106.358 115.471 106.501Z" fill="#3A3847"/>
<path d="M30.3542 118.89C29.7301 119.033 29.1091 118.644 28.966 118.02L9.80343 34.4631C9.66031 33.839 10.0494 33.2183 10.6738 33.0751C11.2979 32.932 11.9189 33.3211 12.062 33.9451L31.2246 117.502C31.3677 118.126 30.9783 118.747 30.3542 118.89Z" fill="#3A3847"/>
<path d="M36.4246 124.629C36.1359 124.695 35.8215 124.651 35.5504 124.481L29.998 121.001C29.4558 120.661 29.2919 119.946 29.6319 119.404C29.9718 118.862 30.6862 118.698 31.2285 119.038L36.7809 122.519C37.3231 122.859 37.487 123.573 37.147 124.115C36.977 124.386 36.7134 124.563 36.4246 124.629Z" fill="#3A3847"/>
<path d="M5.45261 41.4034L3.20082 41.9199C2.57674 42.063 1.95568 41.6737 1.81256 41.0496C1.66943 40.4255 2.05877 39.8044 2.68285 39.6613L4.93464 39.1449C5.55872 39.0018 6.17978 39.3911 6.3229 40.0152C6.46603 40.6393 6.07669 41.2603 5.45261 41.4034Z" fill="#3A3847"/>
<path d="M7.00639 48.1786L4.75461 48.695C4.13053 48.8381 3.50947 48.4488 3.36635 47.8247C3.22322 47.2006 3.61256 46.5796 4.23664 46.4364L6.48842 45.92C7.11251 45.7769 7.73356 46.1662 7.87669 46.7903C8.01981 47.4144 7.63048 48.0355 7.00639 48.1786Z" fill="#3A3847"/>
<path d="M8.56004 54.9531L6.30826 55.4695C5.68417 55.6126 5.06318 55.2236 4.92006 54.5995C4.77693 53.9754 5.16627 53.3544 5.79035 53.2112L8.04214 52.6948C8.66622 52.5517 9.28727 52.941 9.4304 53.5651C9.57352 54.1892 9.18412 54.81 8.56004 54.9531Z" fill="#3A3847"/>
<path d="M10.1138 61.728L7.86198 62.2444C7.2379 62.3875 6.61691 61.9985 6.47378 61.3744C6.33066 60.7503 6.71999 60.1293 7.34408 59.9861L9.59586 59.4697C10.2199 59.3266 10.841 59.7159 10.9841 60.34C11.127 60.9642 10.7378 61.5849 10.1138 61.728Z" fill="#3A3847"/>
<path d="M11.6675 68.5031L9.41576 69.0195C8.79168 69.1626 8.17068 68.7735 8.02749 68.1492C7.88437 67.5251 8.27371 66.904 8.89779 66.7609L11.1496 66.2445C11.7737 66.1014 12.3947 66.4907 12.5378 67.1148C12.6807 67.7392 12.2916 68.3599 11.6675 68.5031Z" fill="#3A3847"/>
<path d="M13.2213 75.278L10.9695 75.7944C10.3454 75.9375 9.72441 75.5484 9.58122 74.9241C9.43803 74.2997 9.82743 73.6789 10.4515 73.5358L12.7033 73.0194C13.3274 72.8763 13.9484 73.2653 14.0916 73.8897C14.2348 74.5141 13.8454 75.1348 13.2213 75.278Z" fill="#3A3847"/>
<path d="M14.775 82.0527L12.5232 82.5691C11.8991 82.7122 11.2781 82.3229 11.135 81.6991C10.9918 81.0747 11.3812 80.454 12.0053 80.3108L14.2571 79.7944C14.8812 79.6513 15.5021 80.0404 15.6453 80.6647C15.7881 81.2886 15.3991 81.9096 14.775 82.0527Z" fill="#3A3847"/>
<path d="M16.3287 88.8276L14.0769 89.344C13.4528 89.4871 12.8318 89.0981 12.6887 88.4737C12.5455 87.8496 12.9349 87.2289 13.559 87.0857L15.8108 86.5693C16.4349 86.4262 17.0559 86.8153 17.199 87.4393C17.3419 88.0638 16.9528 88.6845 16.3287 88.8276Z" fill="#3A3847"/>
<path d="M17.8824 95.6024L15.6306 96.1188C15.0065 96.2619 14.3855 95.8726 14.2424 95.2485C14.0992 94.6244 14.4886 94.0036 15.1127 93.8605L17.3645 93.3441C17.9886 93.201 18.6096 93.59 18.7527 94.2141C18.8958 94.8382 18.5065 95.4593 17.8824 95.6024Z" fill="#3A3847"/>
<path d="M19.4361 102.377L17.1843 102.894C16.5603 103.037 15.9393 102.648 15.7961 102.024C15.653 101.4 16.0424 100.779 16.6665 100.636L18.9183 100.119C19.5424 99.9761 20.1634 100.365 20.3065 100.989C20.4496 101.613 20.0602 102.234 19.4361 102.377Z" fill="#3A3847"/>
<path d="M20.9899 109.152L18.7381 109.669C18.114 109.812 17.493 109.423 17.3499 108.798C17.2067 108.174 17.5961 107.553 18.2202 107.41L20.4719 106.894C21.096 106.751 21.7171 107.14 21.8602 107.764C22.0033 108.388 21.614 109.009 20.9899 109.152Z" fill="#3A3847"/>
<path d="M22.5435 115.927L20.2918 116.443C19.6677 116.586 19.0467 116.197 18.9036 115.573C18.7604 114.949 19.1498 114.328 19.7739 114.185L22.0256 113.669C22.6497 113.525 23.2708 113.915 23.4139 114.539C23.557 115.163 23.1676 115.784 22.5435 115.927Z" fill="#3A3847"/>
<path d="M91.5146 95.3552L41.8322 106.749C41.2082 106.892 40.5875 106.503 40.4443 105.879C40.3012 105.255 40.6903 104.634 41.3144 104.491L90.9968 93.0972C91.6212 92.954 92.2419 93.3431 92.385 93.9672C92.5281 94.5913 92.139 95.212 91.5146 95.3552Z" fill="#3A3847"/>
<path d="M81.2656 102.46L54.153 108.678C53.5289 108.821 52.9079 108.432 52.7648 107.808C52.6216 107.184 53.011 106.562 53.635 106.419L80.7477 100.201C81.3717 100.058 81.9928 100.448 82.1359 101.072C82.279 101.696 81.8899 102.317 81.2656 102.46Z" fill="#3A3847"/>
</svg>
