<svg width="130" height="132" viewBox="0 0 130 132" fill="none" xmlns="http://www.w3.org/2000/svg">
<path d="M47.7046 84.1267C47.3551 83.7247 46.9863 83.3217 46.5982 82.9175C46.8693 82.6308 47.1316 82.3443 47.3852 82.058C52.1719 76.6452 54.1921 71.2169 52.3202 67.9535C50.5252 64.8245 45.1858 63.892 38.5012 65.2001C37.8428 65.3297 37.188 65.476 36.5368 65.6388C36.4122 65.2063 36.2796 64.7763 36.1391 64.3488C33.8715 57.4712 30.2083 52.9976 26.4643 53C22.8741 53.0017 19.4043 57.1913 17.1907 63.6725C16.9729 64.3118 16.7715 64.9566 16.5863 65.6066C16.151 65.4991 15.7138 65.3998 15.2748 65.3087C8.2221 63.8514 2.5416 64.8112 0.673302 68.0765C-1.11818 71.2078 0.755365 76.3259 5.22955 81.4928C5.67327 82.004 6.12956 82.5038 6.59841 82.9921C6.0457 83.5651 5.52232 84.1377 5.03451 84.7072C0.668771 89.8012 -1.09764 94.8356 0.690949 97.9534C2.53814 101.174 8.1387 102.226 14.9555 100.876C15.5079 100.766 16.0573 100.642 16.6036 100.504C16.8038 101.208 17.0233 101.905 17.2622 102.595C19.466 108.947 22.9164 113.001 26.4939 113C30.1885 112.998 33.8922 108.641 36.1361 102.024C36.3133 101.501 36.4811 100.958 36.6401 100.399C37.3458 100.575 38.0561 100.732 38.771 100.869C45.3388 102.12 50.5528 101.136 52.3381 98.0159C54.1817 94.7931 52.2808 89.3879 47.7046 84.1267ZM2.88029 69.3555C4.03047 67.3455 8.67277 66.5613 14.7621 67.8195C15.1513 67.9 15.5472 67.99 15.9497 68.0895C15.3551 70.7363 14.9357 73.4198 14.6939 76.1225C12.4968 77.6781 10.4019 79.3753 8.42259 81.2032C7.98649 80.7493 7.56204 80.2844 7.14923 79.8085C3.31567 75.3815 1.80066 71.2424 2.88029 69.3555ZM14.4658 86.5397C12.9439 85.3799 11.5295 84.1917 10.2458 82.9967C11.5286 81.8091 12.9439 80.6249 14.4627 79.4683C14.408 80.6466 14.381 81.8258 14.3816 83.0059C14.3824 84.1842 14.4104 85.3622 14.4658 86.5397ZM14.464 98.3615C11.8804 98.9397 9.2131 99.0344 6.59543 98.6409C5.87784 98.5847 5.17933 98.3809 4.54307 98.0423C3.9068 97.7036 3.3463 97.2373 2.8962 96.672C1.81097 94.78 3.22934 90.738 6.96302 86.3813C7.43242 85.8353 7.91722 85.3036 8.4174 84.7861C10.3971 86.6237 12.4953 88.3275 14.6984 89.8863C14.9434 92.6235 15.3678 95.3414 15.9689 98.0223C15.4701 98.1478 14.9685 98.2609 14.464 98.3615ZM35.6313 74.2435C34.6315 73.6095 33.6194 72.9958 32.595 72.4025C31.5869 71.8185 30.5666 71.2565 29.5343 70.7163C31.3019 69.9683 33.0395 69.3295 34.7169 68.8089C35.1123 70.6038 35.4175 72.4176 35.6313 74.2435ZM19.5992 64.5056C21.4957 58.9522 24.3019 55.564 26.4657 55.5631C28.7701 55.562 31.7642 59.2179 33.722 65.156C33.8492 65.5431 33.9694 65.9323 34.0827 66.3238C31.5106 67.1267 28.994 68.1 26.5496 69.2374C24.1154 68.0866 21.6068 67.1025 19.0409 66.2916C19.2124 65.6917 19.3985 65.0964 19.5992 64.5056ZM18.4058 68.777C20.1555 69.3313 21.8763 69.9741 23.5617 70.7029C21.4734 71.7875 19.4391 72.9689 17.4588 74.2471C17.6981 72.3331 18.0164 70.4993 18.4058 68.777ZM17.4632 91.7589C18.4507 92.3952 19.4527 93.0079 20.4691 93.5971C21.506 94.1979 22.5566 94.7734 23.621 95.3238C21.9227 96.0778 20.1871 96.7436 18.4211 97.3185C18.0272 95.5723 17.7053 93.7062 17.4632 91.7589ZM33.7257 101.195C32.9327 103.737 31.6817 106.11 30.0352 108.195C29.6283 108.793 29.1038 109.3 28.4945 109.685C27.8852 110.071 27.2038 110.326 26.4925 110.436C24.3218 110.438 21.5513 107.181 19.6666 101.75C19.4447 101.108 19.2405 100.46 19.0541 99.806C21.6322 98.9689 24.151 97.9569 26.5931 96.7769C29.0576 97.9217 31.5942 98.9023 34.1864 99.7124C34.0448 100.21 33.8913 100.705 33.7257 101.195ZM34.8055 97.2228C33.1088 96.6948 31.346 96.0452 29.5528 95.2863C30.5637 94.7509 31.5818 94.1854 32.6074 93.59C33.6597 92.9784 34.6852 92.3515 35.6839 91.7093C35.485 93.5611 35.1918 95.4013 34.8055 97.2228ZM36.1358 82.9948C36.138 84.8167 36.0815 86.6371 35.9663 88.4561C34.4977 89.4564 32.9472 90.4331 31.334 91.3704C29.7275 92.3038 28.1358 93.1617 26.5744 93.9381C24.9313 93.1456 23.3199 92.2916 21.7402 91.3761C20.1694 90.4661 18.6345 89.4971 17.1358 88.4691C16.9988 86.6507 16.9297 84.8289 16.9287 83.0039C16.9275 81.1802 16.9953 79.3589 17.1316 77.539C18.5998 76.5299 20.139 75.554 21.7304 74.6293C23.3291 73.7002 24.9407 72.846 26.5435 72.0718C28.1663 72.8656 29.7599 73.7162 31.3242 74.6238C32.894 75.5318 34.4331 76.4905 35.9415 77.4998C36.0711 79.3287 36.1357 81.1603 36.1358 82.9948ZM38.9877 67.7163C44.7148 66.5952 49.0331 67.3494 50.1149 69.235C51.2673 71.2438 49.6156 75.6805 45.4832 80.354C45.2548 80.6119 45.0178 80.8709 44.7723 81.1309C42.7587 79.2991 40.6235 77.6073 38.3815 76.0674C38.1553 73.3943 37.7515 70.7394 37.1729 68.1206C37.7896 67.9679 38.3945 67.8332 38.9877 67.7163ZM38.6005 79.3704C40.1128 80.4816 41.5668 81.6711 42.9566 82.9339C41.5729 84.2175 40.1235 85.4275 38.6143 86.5588C38.6605 85.371 38.6833 84.1826 38.6825 82.9936C38.682 81.7856 38.6547 80.5779 38.6005 79.3704ZM50.1307 96.7366C49.0473 98.6301 44.8609 99.4197 39.244 98.3501C38.6003 98.2278 37.9398 98.0823 37.2625 97.9134C37.8272 95.2609 38.213 92.5731 38.4175 89.8682C40.6557 88.3014 42.7842 86.5814 44.7878 84.7206C45.1384 85.0871 45.4719 85.452 45.7882 85.8152C47.5799 87.7758 48.9977 90.0514 49.9706 92.5287C50.2817 93.1818 50.4565 93.8922 50.484 94.616C50.5115 95.3397 50.3913 96.0615 50.1307 96.7366ZM23.8439 78.3137C22.932 78.8435 22.1968 79.6336 21.7311 80.584C21.2654 81.5344 21.0902 82.6024 21.2276 83.653C21.3651 84.7037 21.809 85.6897 22.5032 86.4864C23.1975 87.2831 24.1109 87.8547 25.1279 88.1289C26.145 88.4032 27.22 88.3677 28.217 88.0271C29.214 87.6864 30.0883 87.0558 30.7292 86.2151C31.3702 85.3744 31.749 84.3613 31.8178 83.3038C31.8866 82.2464 31.6423 81.1922 31.1158 80.2745C30.4098 79.0441 29.2471 78.1463 27.8834 77.7786C26.5196 77.4109 25.0666 77.6033 23.8439 78.3137Z" fill="#6563FF"/>
<path d="M84.5957 36.1181C87.9746 36.1181 90.7138 33.3789 90.7138 30C90.7138 26.6211 87.9746 23.8819 84.5957 23.8819C81.2168 23.8819 78.4776 26.6211 78.4776 30C78.4776 33.3789 81.2168 36.1181 84.5957 36.1181Z" fill="#61DAFB"/>
<path d="M107.834 19.9106C106.653 19.4812 105.419 19.0519 104.131 18.6762C104.453 17.3882 104.721 16.1002 104.936 14.8658C106.063 7.78175 104.828 2.7907 101.394 0.858676C100.374 0.268336 99.2469 0 97.9589 0C94.2021 0 89.4258 2.7907 84.5957 7.45975C79.7656 2.7907 74.9893 0 71.2326 0C69.9445 0 68.8175 0.268336 67.7979 0.858676C64.3631 2.84436 63.1288 7.83542 64.2558 14.8658C64.4705 16.1002 64.7388 17.3882 65.0608 18.6762C63.7728 19.0519 62.5385 19.4275 61.3578 19.9106C54.6494 22.4866 51 26.0286 51 30C51 33.9714 54.703 37.5134 61.3578 40.0894C62.5385 40.5188 63.7728 40.9481 65.0608 41.3238C64.7388 42.6118 64.4705 43.8998 64.2558 45.1342C63.1288 52.2182 64.3631 57.2093 67.7979 59.1413C68.8175 59.7317 69.9445 60 71.2326 60C75.0429 60 79.8193 57.2093 84.5957 52.5402C89.4258 57.2093 94.2021 60 97.9589 60C99.2469 60 100.374 59.7317 101.394 59.1413C104.828 57.1556 106.063 52.1646 104.936 45.1342C104.721 43.8998 104.453 42.6118 104.131 41.3238C105.419 40.9481 106.653 40.5724 107.834 40.0894C114.542 37.5134 118.191 33.9714 118.191 30C118.191 26.0286 114.542 22.4866 107.834 19.9106ZM99.8909 3.54204C102.091 4.83005 102.843 8.80143 101.93 14.4365C101.769 15.5635 101.501 16.7442 101.179 17.9785C98.3882 17.3345 95.4365 16.9052 92.3238 16.6368C90.4991 14.0608 88.6207 11.7531 86.7424 9.66011C90.7138 5.7424 94.7388 3.05903 98.0125 3.05903C98.7102 3.05903 99.3542 3.22004 99.8909 3.54204ZM93.8801 35.3667C92.9141 37.0841 91.7871 38.8014 90.6064 40.5188C88.6207 40.6798 86.6351 40.7335 84.5957 40.7335C82.5027 40.7335 80.517 40.6798 78.585 40.5188C77.4043 38.8014 76.3309 37.0841 75.3649 35.3667C74.3453 33.5957 73.3792 31.771 72.5206 30C73.3792 28.229 74.3453 26.4043 75.3649 24.6333C76.3309 22.9159 77.458 21.1986 78.6386 19.4812C80.6243 19.3202 82.61 19.2665 84.6494 19.2665C86.7424 19.2665 88.7281 19.3202 90.6601 19.4812C91.8408 21.1986 92.9141 22.9159 93.8801 24.6333C94.8998 26.4043 95.8658 28.229 96.7245 30C95.8122 31.771 94.8998 33.542 93.8801 35.3667ZM98.3345 33.5957C99.1395 35.4741 99.7835 37.2987 100.374 39.1234C98.5492 39.5528 96.6172 39.8748 94.5778 40.1431C95.2218 39.1234 95.9195 38.0501 96.5098 36.9231C97.1538 35.7961 97.7442 34.669 98.3345 33.5957ZM84.5957 48.1395C83.3077 46.7442 82.0733 45.2415 80.8927 43.6852C82.127 43.7388 83.3614 43.7925 84.5957 43.7925C85.8301 43.7925 87.0644 43.7388 88.2987 43.6852C87.1181 45.2415 85.8837 46.7442 84.5957 48.1395ZM74.6136 40.0894C72.5742 39.8211 70.6422 39.4991 68.8175 39.0698C69.4079 37.2987 70.0519 35.4204 70.8569 33.542C71.4472 34.6154 72.0376 35.7424 72.6816 36.8157C73.3256 37.9964 73.9696 39.0161 74.6136 40.0894ZM70.8569 26.4043C70.0519 24.5259 69.4079 22.7013 68.8175 20.8766C70.6422 20.4472 72.5742 20.1252 74.6136 19.8569C73.9696 20.8766 73.2719 21.9499 72.6816 23.0769C72.0376 24.2039 71.4472 25.3309 70.8569 26.4043ZM84.5957 11.8605C85.8837 13.2558 87.1181 14.7585 88.2987 16.3148C87.0644 16.2612 85.8301 16.2075 84.5957 16.2075C83.3614 16.2075 82.127 16.2612 80.8927 16.3148C82.0733 14.7585 83.3077 13.2558 84.5957 11.8605ZM96.5098 23.1306L94.5778 19.9106C96.6172 20.1789 98.5492 20.5009 100.374 20.9302C99.7835 22.7013 99.1395 24.5796 98.3345 26.458C97.7442 25.3309 97.1538 24.2039 96.5098 23.1306ZM67.2612 14.4365C66.3488 8.80143 67.1002 4.83005 69.3005 3.54204C69.8372 3.22004 70.4812 3.05903 71.1789 3.05903C74.3989 3.05903 78.424 5.68873 82.449 9.66011C80.5707 11.6995 78.6923 14.0608 76.8676 16.6368C73.7549 16.9052 70.8032 17.3882 68.0125 17.9785C67.6905 16.7442 67.4758 15.5635 67.2612 14.4365ZM54.0054 30C54.0054 27.4776 57.0644 24.7943 62.4311 22.8086C63.5045 22.3792 64.6852 22.0036 65.8658 21.6816C66.7245 24.3649 67.7978 27.2093 69.0859 30.0537C67.7978 32.898 66.6708 35.6887 65.8658 38.3721C58.4597 36.2254 54.0054 33.0054 54.0054 30ZM69.3005 56.458C67.1002 55.1699 66.3488 51.1986 67.2612 45.5635C67.4222 44.4365 67.6905 43.2558 68.0125 42.0215C70.8032 42.6655 73.7549 43.0948 76.8676 43.3631C78.6923 45.9392 80.5707 48.2469 82.449 50.3399C78.4776 54.2576 74.4526 56.941 71.1789 56.941C70.4812 56.941 69.8372 56.78 69.3005 56.458ZM101.93 45.5635C102.843 51.1986 102.091 55.1699 99.8909 56.458C99.3542 56.78 98.7102 56.941 98.0125 56.941C94.7925 56.941 90.7674 54.3113 86.7424 50.3399C88.6207 48.3005 90.4991 45.9392 92.3238 43.3631C95.4365 43.0948 98.3882 42.6118 101.179 42.0215C101.501 43.2558 101.716 44.4365 101.93 45.5635ZM106.76 37.1914C105.687 37.6208 104.506 37.9964 103.326 38.3184C102.467 35.6351 101.394 32.7907 100.106 29.9463C101.394 27.102 102.521 24.3113 103.326 21.6279C110.732 23.7746 115.186 26.9946 115.186 30C115.186 32.5224 112.073 35.2057 106.76 37.1914Z" fill="#61DAFB"/>
<path d="M126.94 85.2947L105.082 72.5895C103.704 71.8035 101.909 71.8035 100.52 72.5895L78.4292 85.2947C77.0067 86.1139 76 87.6536 76 89.3005V114.677C76 116.324 77.033 117.864 78.4555 118.688L84.2919 122.007C87.0815 123.382 88.0674 123.382 89.3367 123.382C93.4671 123.382 95.8264 120.882 95.8264 116.521V91.4674C95.8264 91.1136 95.6425 90.5872 95.2956 90.5872H92.5085C92.1556 90.5872 91.3655 91.1136 91.3655 91.4669V116.52C91.3655 118.453 89.6188 120.377 86.3544 118.743L80.3236 115.263C80.1135 115.149 79.9653 114.919 79.9653 114.677V89.3005C79.9653 89.0613 80.2404 88.8212 80.452 88.6986L102.471 76.0152C102.677 75.8986 102.979 75.8986 103.185 76.0152L124.935 88.6956C125.143 88.8212 125.07 89.0539 125.07 89.3005V114.677C125.07 114.919 125.161 115.155 124.955 115.272L103.103 127.962C102.916 128.075 102.683 128.075 102.478 127.962L96.8738 124.614C96.7047 124.515 96.504 124.48 96.3419 124.571C94.7826 125.456 94.4951 125.573 93.0324 126.081C92.6725 126.206 92.1417 126.424 93.2356 127.038L100.57 131.382C101.273 131.789 102.071 132 102.874 132C103.688 132 104.485 131.789 105.187 131.382L126.939 118.688C128.362 117.858 129.036 116.324 129.036 114.677V89.3005C129.036 87.6536 128.362 86.1179 126.94 85.2947ZM109.66 110.656C103.848 110.656 102.568 109.051 102.141 106.157C102.092 105.846 101.827 105.473 101.511 105.473H98.67C98.3186 105.473 98.0361 105.9 98.0361 106.25C98.0361 109.955 100.048 114.443 109.661 114.443C116.619 114.443 120.609 111.737 120.609 106.946C120.609 102.197 117.404 100.95 110.655 100.056C103.834 99.1535 103.141 98.6975 103.141 97.0978C103.141 95.7789 103.728 94.0199 108.779 94.0199C113.292 94.0199 114.955 94.9894 115.639 98.0346C115.698 98.3209 115.959 98.5264 116.254 98.5264H119.106C119.282 98.5264 119.449 98.4554 119.572 98.3299C119.691 98.1949 119.754 98.0257 119.738 97.8441C119.296 92.6002 115.816 90.1565 108.778 90.1565C102.517 90.1565 98.7826 92.8032 98.7826 97.2397C98.7826 102.052 102.499 103.382 108.508 103.977C115.698 104.682 116.257 105.734 116.257 107.15C116.257 109.608 114.285 110.656 109.66 110.656Z" fill="#83CD29"/>
</svg>
