<svg width="60" height="61" viewBox="0 0 60 61" fill="none" xmlns="http://www.w3.org/2000/svg">
<path d="M59.676 23.1444C52.925 17.5713 43.862 17.3467 35.7008 19.5839C35.7292 13.393 35.8582 7.20392 35.9959 1.02426C36.0243 -0.229396 34.2974 -0.344695 33.9042 0.747199C31.2443 8.1808 28.7777 15.6775 26.5044 23.2373C24.1391 24.4505 21.8684 25.8186 19.6373 27.277C11.205 23.2545 2.8235 33.0222 0.0718187 40.8074C-0.342912 42.0043 1.13016 42.9809 2.14203 42.3975C7.74433 39.1683 13.6099 34.7448 19.7147 30.7567C21.02 31.6636 22.2341 32.9009 23.3905 34.2062C22.1182 38.9173 20.9423 43.6532 19.8627 48.4137C19.6906 49.195 20.8565 49.5236 21.0673 48.7432C22.2238 44.3974 23.4275 40.0626 24.6786 35.7386C30.1587 42.4896 33.5746 50.7024 34.8808 59.2853C35.1174 60.8694 37.9147 60.5106 37.7073 58.899C36.1585 46.8528 35.7128 34.7155 35.6948 22.5722C43.0222 20.2146 50.6251 20.1526 58.4628 24.7129C59.4093 25.2679 60.5777 23.8869 59.676 23.1409V23.1444ZM4.62869 37.5816C6.28761 34.7155 8.56519 32.1953 11.3857 30.4615C13.2701 29.3051 14.9858 29.0289 16.5638 29.3335C12.5765 32.074 8.68049 34.9694 4.62869 37.5816ZM33.6435 7.7176C33.5058 11.9191 33.3853 16.1163 33.3088 20.3118C32.4991 20.5837 31.7075 20.8849 30.9262 21.1963C30.2164 21.4854 29.5134 21.7875 28.825 22.1041C30.3635 17.2891 31.9696 12.4936 33.6435 7.7176ZM24.3086 30.8436C23.6788 30.2249 23.0326 29.6389 22.3606 29.0736C23.338 28.4713 24.3207 27.8828 25.3033 27.3166C24.9677 28.4911 24.633 29.663 24.3086 30.8444V30.8436ZM25.6956 32.2719C26.3151 30.1957 26.9398 28.134 27.5808 26.0699C29.4237 25.0887 31.3196 24.2106 33.2597 23.4395C33.1788 30.4805 33.2477 37.5197 33.6177 44.5477C31.6189 40.0459 28.9653 35.8212 25.693 32.2719H25.6956ZM51.2024 27.364C50.8789 29.0513 48.7287 30.2473 47.2952 29.0048C46.5036 28.3165 46.6361 27.4104 47.1231 26.809C46.5681 27.1901 46.1585 27.8888 45.8625 28.4042C45.447 29.1382 44.1701 28.6357 44.4755 27.82C45.095 26.1791 46.1749 24.491 48.0997 24.3584C49.7526 24.2423 51.5414 25.5631 51.2033 27.364" fill="#455880"/>
</svg>
